<svg xmlns="http://www.w3.org/2000/svg" width="24.714" height="16" viewBox="0 0 24.714 16">
  <g id="font-size" transform="translate(-1074.333 4084.256)">
    <path id="Icon_awesome-font" data-name="Icon awesome-font" d="M15.468,15.964H14.63L9.95,3.025A1.146,1.146,0,0,0,8.865,2.25H7.176a1.146,1.146,0,0,0-1.085.775L1.411,15.964H.573A.572.572,0,0,0,0,16.536v1.143a.572.572,0,0,0,.573.571H5.156a.572.572,0,0,0,.573-.571V16.536a.572.572,0,0,0-.573-.571h-.7l.834-2.286h5.463l.834,2.286h-.7a.572.572,0,0,0-.573.571v1.143a.572.572,0,0,0,.573.571h4.583a.572.572,0,0,0,.573-.571V16.536A.572.572,0,0,0,15.468,15.964ZM6.332,10.821,8.021,6.2l1.688,4.625Z" transform="translate(1074.333 -4086.506)" fill="#f2f4f4" opacity="0.846"/>
    <path id="Icon_awesome-plus" data-name="Icon awesome-plus" d="M6.2,4.871H4.051V2.727a.477.477,0,0,0-.477-.477H3.1a.477.477,0,0,0-.477.477V4.871H.477A.477.477,0,0,0,0,5.348v.477A.477.477,0,0,0,.477,6.3H2.621V8.446a.477.477,0,0,0,.477.477h.477a.477.477,0,0,0,.477-.477V6.3H6.2a.477.477,0,0,0,.477-.477V5.348A.477.477,0,0,0,6.2,4.871Z" transform="translate(1092.375 -4084.74)" fill="#f2f4f4" opacity="0.854"/>
    <path id="Icon_awesome-minus" data-name="Icon awesome-minus" d="M6.2,14.625H.477A.477.477,0,0,0,0,15.1v.477a.477.477,0,0,0,.477.477H6.2a.477.477,0,0,0,.477-.477V15.1A.477.477,0,0,0,6.2,14.625Z" transform="translate(1092.375 -4086.904)" fill="#f2f4f4" opacity="0.849"/>
  </g>
</svg>
