<svg id="Calendar" xmlns="http://www.w3.org/2000/svg" width="17.001" height="17" viewBox="0 0 17.001 17">
  <g id="Group_144" data-name="Group 144">
    <g id="Group_143" data-name="Group 143">
      <path id="Path_272" data-name="Path 272" d="M207.728,24.509h-.8v-.663a.664.664,0,0,0-.664-.664h0a.664.664,0,0,0-.664.664v.663h-8.766v-.663a.664.664,0,0,0-.664-.664h0a.664.664,0,0,0-.664.664v.663h-.8A1.992,1.992,0,0,0,192.72,26.5V38.189a1.992,1.992,0,0,0,1.992,1.992h13.016a1.992,1.992,0,0,0,1.992-1.992V26.5A1.993,1.993,0,0,0,207.728,24.509Zm.664,13.68a.665.665,0,0,1-.664.664H194.712a.665.665,0,0,1-.664-.664V29.423h14.344Zm0-10.094H194.048V26.5a.664.664,0,0,1,.664-.664h.8V26.5a.664.664,0,0,0,.664.664h0a.664.664,0,0,0,.664-.664v-.664H205.6V26.5a.664.664,0,0,0,.664.664h0a.664.664,0,0,0,.664-.664v-.664h.8a.665.665,0,0,1,.664.664Z" transform="translate(-192.72 -23.181)" fill="#86a8a7"/>
    </g>
  </g>
  <g id="Group_146" data-name="Group 146" transform="translate(2.964 7.524)">
    <g id="Group_145" data-name="Group 145">
      <rect id="Rectangle_241" data-name="Rectangle 241" width="1.56" height="1.56" fill="#86a8a7"/>
    </g>
  </g>
  <g id="Group_148" data-name="Group 148" transform="translate(5.103 7.524)">
    <g id="Group_147" data-name="Group 147">
      <rect id="Rectangle_242" data-name="Rectangle 242" width="1.56" height="1.56" fill="#86a8a7"/>
    </g>
  </g>
  <g id="Group_150" data-name="Group 150" transform="translate(7.72 7.524)">
    <g id="Group_149" data-name="Group 149">
      <rect id="Rectangle_243" data-name="Rectangle 243" width="1.56" height="1.56" fill="#86a8a7"/>
    </g>
  </g>
  <g id="Group_152" data-name="Group 152" transform="translate(10.337 7.524)">
    <g id="Group_151" data-name="Group 151">
      <rect id="Rectangle_244" data-name="Rectangle 244" width="1.56" height="1.56" fill="#86a8a7"/>
    </g>
  </g>
  <g id="Group_154" data-name="Group 154" transform="translate(12.477 7.524)">
    <g id="Group_153" data-name="Group 153">
      <rect id="Rectangle_245" data-name="Rectangle 245" width="1.56" height="1.56" fill="#86a8a7"/>
    </g>
  </g>
  <g id="Group_156" data-name="Group 156" transform="translate(2.964 10.141)">
    <g id="Group_155" data-name="Group 155">
      <rect id="Rectangle_246" data-name="Rectangle 246" width="1.56" height="1.56" fill="#86a8a7"/>
    </g>
  </g>
  <g id="Group_158" data-name="Group 158" transform="translate(5.103 10.141)">
    <g id="Group_157" data-name="Group 157">
      <rect id="Rectangle_247" data-name="Rectangle 247" width="1.56" height="1.56" fill="#86a8a7"/>
    </g>
  </g>
  <g id="Group_160" data-name="Group 160" transform="translate(7.72 10.141)">
    <g id="Group_159" data-name="Group 159">
      <rect id="Rectangle_248" data-name="Rectangle 248" width="1.56" height="1.56" fill="#86a8a7"/>
    </g>
  </g>
  <g id="Group_162" data-name="Group 162" transform="translate(10.337 10.141)">
    <g id="Group_161" data-name="Group 161">
      <rect id="Rectangle_249" data-name="Rectangle 249" width="1.56" height="1.56" fill="#86a8a7"/>
    </g>
  </g>
  <g id="Group_164" data-name="Group 164" transform="translate(2.964 12.758)">
    <g id="Group_163" data-name="Group 163">
      <rect id="Rectangle_250" data-name="Rectangle 250" width="1.56" height="1.56" fill="#86a8a7"/>
    </g>
  </g>
  <g id="Group_166" data-name="Group 166" transform="translate(5.103 12.758)">
    <g id="Group_165" data-name="Group 165">
      <rect id="Rectangle_251" data-name="Rectangle 251" width="1.56" height="1.56" fill="#86a8a7"/>
    </g>
  </g>
  <g id="Group_168" data-name="Group 168" transform="translate(7.72 12.758)">
    <g id="Group_167" data-name="Group 167">
      <rect id="Rectangle_252" data-name="Rectangle 252" width="1.56" height="1.56" fill="#86a8a7"/>
    </g>
  </g>
  <g id="Group_170" data-name="Group 170" transform="translate(10.337 12.758)">
    <g id="Group_169" data-name="Group 169">
      <rect id="Rectangle_253" data-name="Rectangle 253" width="1.56" height="1.56" fill="#86a8a7"/>
    </g>
  </g>
  <g id="Group_172" data-name="Group 172" transform="translate(12.477 10.141)">
    <g id="Group_171" data-name="Group 171">
      <rect id="Rectangle_254" data-name="Rectangle 254" width="1.56" height="1.56" fill="#86a8a7"/>
    </g>
  </g>
</svg>
