<svg xmlns="http://www.w3.org/2000/svg" width="35.386" height="35.388" viewBox="0 0 35.386 35.388">
  <g id="Group_268" data-name="Group 268" transform="translate(0)">
    <path id="Path_345" data-name="Path 345" d="M1007.834,156.726H997.6a4.732,4.732,0,0,0-4.724,4.726v10.228a4.73,4.73,0,0,0,4.724,4.725h10.229a4.731,4.731,0,0,0,4.725-4.725V161.452A4.732,4.732,0,0,0,1007.834,156.726Zm-5.112,15.923a6.083,6.083,0,1,1,6.078-6.085A6.09,6.09,0,0,1,1002.722,172.649Zm6.339-11.05a1.461,1.461,0,1,1,1.463-1.459A1.46,1.46,0,0,1,1009.061,161.6Z" transform="translate(-985.027 -148.87)" fill="#434343"/>
    <path id="Path_346" data-name="Path 346" d="M1002.414,162.213a4.047,4.047,0,1,0,4.042,4.043A4.05,4.05,0,0,0,1002.414,162.213Z" transform="translate(-984.72 -148.563)" fill="#434343"/>
    <path id="Path_347" data-name="Path 347" d="M1003.138,149.286a17.694,17.694,0,1,0,17.692,17.694A17.695,17.695,0,0,0,1003.138,149.286ZM1015.01,172.1a6.765,6.765,0,0,1-6.76,6.756H998.02a6.763,6.763,0,0,1-6.758-6.756V161.869a6.768,6.768,0,0,1,6.758-6.76h10.229a6.77,6.77,0,0,1,6.76,6.76Z" transform="translate(-985.443 -149.286)" fill="#434343"/>
  </g>
</svg>
