<svg xmlns="http://www.w3.org/2000/svg" width="20.998" height="20.999" viewBox="0 0 20.998 20.999">
  <g id="insta" transform="translate(0)">
    <path id="Path_345" data-name="Path 345" d="M1001.753,156.726h-6.07a2.808,2.808,0,0,0-2.8,2.8V165.6a2.807,2.807,0,0,0,2.8,2.8h6.07a2.807,2.807,0,0,0,2.8-2.8v-6.069A2.808,2.808,0,0,0,1001.753,156.726Zm-3.033,9.448a3.61,3.61,0,1,1,3.607-3.611A3.614,3.614,0,0,1,998.72,166.174Zm3.761-6.557a.867.867,0,1,1,.868-.866A.866.866,0,0,1,1002.481,159.618Z" transform="translate(-988.22 -152.064)" fill="#bcc2c9"/>
    <path id="Path_346" data-name="Path 346" d="M1000.769,162.213a2.4,2.4,0,1,0,2.4,2.4A2.4,2.4,0,0,0,1000.769,162.213Z" transform="translate(-990.269 -154.113)" fill="#bcc2c9"/>
    <path id="Path_347" data-name="Path 347" d="M995.943,149.286a10.5,10.5,0,1,0,10.5,10.5A10.5,10.5,0,0,0,995.943,149.286Zm7.045,13.536a4.014,4.014,0,0,1-4.011,4.009h-6.07a4.013,4.013,0,0,1-4.01-4.009v-6.069a4.016,4.016,0,0,1,4.01-4.011h6.07a4.017,4.017,0,0,1,4.011,4.011Z" transform="translate(-985.443 -149.286)" fill="#bcc2c9"/>
  </g>
</svg>
