<svg xmlns="http://www.w3.org/2000/svg" width="41.29" height="40.974" viewBox="0 0 41.29 40.974">
  <g id="Open-data" transform="translate(-1018.508 -664.513)">
    <g id="Site-1-Copy-3" transform="translate(889 632)">
      <g id="Group-12">
        <g id="_٧.-الرخص-الانشائية-" data-name="٧.-الرخص-الانشائية-" transform="translate(130 33)">
          <path id="Path" d="M39.737,29.211A10.526,10.526,0,1,1,29.211,18.684" fill="none" stroke="#82bd41" stroke-linecap="round" stroke-linejoin="round" stroke-width="1.5" fill-rule="evenodd"/>
          <path id="Path-2" data-name="Path" d="M39.737,21.316l-9.6,9.595a1.314,1.314,0,0,1-1.858,0l0,0-3.018-3.016" fill="none" stroke="#82bd41" stroke-linecap="round" stroke-linejoin="round" stroke-width="1.5" fill-rule="evenodd"/>
          <path id="Path-3" data-name="Path" d="M17.368,39.737H2.889A2.633,2.633,0,0,1,.258,37.105V2.895A2.633,2.633,0,0,1,2.889.263H30.526a2.633,2.633,0,0,1,2.632,2.632V16.053" fill="none" stroke="#182842" stroke-linecap="round" stroke-linejoin="round" stroke-width="1.5" fill-rule="evenodd"/>
          <path id="Path-4" data-name="Path" d="M14.721,22.244H9.458a1.316,1.316,0,0,1-1.316-1.316V16.981" fill="none" stroke="#182842" stroke-linecap="round" stroke-linejoin="round" stroke-width="1.5" fill-rule="evenodd"/>
          <path id="Path-5" data-name="Path" d="M5.511,13.033l7.895-6.579L21.3,13.033" fill="none" stroke="#182842" stroke-linecap="round" stroke-linejoin="round" stroke-width="1.5" fill-rule="evenodd"/>
        </g>
      </g>
    </g>
  </g>
</svg>
