<?xml version="1.0" encoding="UTF-8"?>
<svg xmlns="http://www.w3.org/2000/svg" width="15" height="21" viewBox="0 0 15 21">
                        <g fill="#82BD41" fill-rule="nonzero">
                          <path d="M14.154 9.872a.586.586 0 0 0-1.172 0 5.697 5.697 0 0 1-5.69 5.69 5.697 5.697 0 0 1-5.69-5.69.586.586 0 0 0-1.172 0c0 3.587 2.765 6.539 6.276 6.837v2.62H5.409a.586.586 0 1 0 0 1.171h3.766a.586.586 0 0 0 0-1.172H7.878V16.71c3.51-.298 6.276-3.25 6.276-6.837z"></path>
                          <path d="M7.292.5a3.1 3.1 0 0 0-3.097 3.096v6.276a3.1 3.1 0 0 0 3.097 3.097 3.1 3.1 0 0 0 3.096-3.097V3.596A3.1 3.1 0 0 0 7.292.5z"></path>
                        </g>
                      </svg>