<svg xmlns="http://www.w3.org/2000/svg" width="25.299" height="25.299" viewBox="0 0 25.299 25.299">
  <g id="Group_1466" data-name="Group 1466" transform="translate(-0.001 -0.002)">
    <g id="Group_1455" data-name="Group 1455" transform="translate(0.001 0.002)">
      <g id="Group_1454" data-name="Group 1454" transform="translate(0 0)">
        <path id="Path_929" data-name="Path 929" d="M24.986,13.416a1.6,1.6,0,0,1,0-1.529,2.593,2.593,0,0,0-.646-3.25,1.6,1.6,0,0,1-.585-1.413A2.593,2.593,0,0,0,21.914,4.47a1.6,1.6,0,0,1-1.081-1.081,2.593,2.593,0,0,0-2.755-1.841A1.6,1.6,0,0,1,16.665.962a2.593,2.593,0,0,0-3.25-.647,1.6,1.6,0,0,1-1.529,0,2.594,2.594,0,0,0-3.25.646,1.6,1.6,0,0,1-1.413.585A2.593,2.593,0,0,0,4.468,3.388,1.6,1.6,0,0,1,3.387,4.469,2.593,2.593,0,0,0,1.546,7.224,1.6,1.6,0,0,1,.961,8.637a2.593,2.593,0,0,0-.646,3.25,1.6,1.6,0,0,1,0,1.529,2.593,2.593,0,0,0,.646,3.25,1.6,1.6,0,0,1,.585,1.413,2.593,2.593,0,0,0,1.841,2.755,1.6,1.6,0,0,1,1.081,1.081,2.593,2.593,0,0,0,2.755,1.841,1.6,1.6,0,0,1,1.413.585,2.593,2.593,0,0,0,3.25.646,1.6,1.6,0,0,1,1.529,0,2.593,2.593,0,0,0,3.25-.646,1.6,1.6,0,0,1,1.413-.585,2.591,2.591,0,0,0,2.755-1.841,1.6,1.6,0,0,1,1.081-1.081,2.593,2.593,0,0,0,1.841-2.755,1.6,1.6,0,0,1,.585-1.413A2.593,2.593,0,0,0,24.986,13.416Zm-.869.471a1.6,1.6,0,0,1-.4,2.011,2.584,2.584,0,0,0-.946,2.283,1.6,1.6,0,0,1-1.139,1.7,2.584,2.584,0,0,0-1.748,1.748,1.6,1.6,0,0,1-1.7,1.139,2.584,2.584,0,0,0-2.283.946,1.6,1.6,0,0,1-2.011.4,2.584,2.584,0,0,0-2.471,0,1.6,1.6,0,0,1-2.011-.4,2.583,2.583,0,0,0-2.283-.946,1.6,1.6,0,0,1-1.7-1.139,2.584,2.584,0,0,0-1.748-1.748,1.6,1.6,0,0,1-1.139-1.7A2.584,2.584,0,0,0,1.583,15.9a1.6,1.6,0,0,1-.4-2.011,2.584,2.584,0,0,0,0-2.472,1.6,1.6,0,0,1,.4-2.011,2.584,2.584,0,0,0,.946-2.283,1.6,1.6,0,0,1,1.139-1.7A2.584,2.584,0,0,0,5.415,3.669,1.6,1.6,0,0,1,7.12,2.53,2.584,2.584,0,0,0,9.4,1.584a1.6,1.6,0,0,1,2.011-.4,2.584,2.584,0,0,0,2.472,0,1.6,1.6,0,0,1,2.011.4,2.583,2.583,0,0,0,2.283.946,1.6,1.6,0,0,1,1.7,1.139,2.584,2.584,0,0,0,1.748,1.748,1.6,1.6,0,0,1,1.139,1.7A2.584,2.584,0,0,0,23.718,9.4a1.6,1.6,0,0,1,.4,2.011A2.584,2.584,0,0,0,24.118,13.887Z" transform="translate(-0.001 -0.002)"/>
      </g>
    </g>
    <g id="Group_1457" data-name="Group 1457" transform="translate(2.667 2.672)">
      <g id="Group_1456" data-name="Group 1456">
        <path id="Path_930" data-name="Path 930" d="M68.672,55.215a10.061,10.061,0,0,0-6.112-1.09A9.985,9.985,0,0,0,54.88,68.188a.494.494,0,1,0,.9-.413A9,9,0,0,1,68.2,56.085a.494.494,0,0,0,.468-.87Z" transform="translate(-53.965 -54.03)"/>
      </g>
    </g>
    <g id="Group_1459" data-name="Group 1459" transform="translate(5.448 18.866)">
      <g id="Group_1458" data-name="Group 1458">
        <path id="Path_931" data-name="Path 931" d="M111.1,381.934l-.021-.021a.494.494,0,0,0-.7.7l.021.021a.494.494,0,0,0,.7-.7Z" transform="translate(-110.233 -381.768)"/>
      </g>
    </g>
    <g id="Group_1461" data-name="Group 1461" transform="translate(8.333 7.605)">
      <g id="Group_1460" data-name="Group 1460">
        <path id="Path_932" data-name="Path 932" d="M181.712,154.122a.494.494,0,0,0-.867.474,9.039,9.039,0,0,1-1.534,10.674,8.94,8.94,0,0,1-9.983,1.874.494.494,0,0,0-.4.9,9.949,9.949,0,0,0,4.012.845,10.082,10.082,0,0,0,1.775-.158,9.985,9.985,0,0,0,8.124-8.473A10.057,10.057,0,0,0,181.712,154.122Z" transform="translate(-168.635 -153.865)"/>
      </g>
    </g>
    <g id="Group_1463" data-name="Group 1463" transform="translate(18.865 5.449)">
      <g id="Group_1462" data-name="Group 1462">
        <path id="Path_933" data-name="Path 933" d="M382.623,110.394l-.013-.013a.494.494,0,0,0-.7.7l.013.013a.494.494,0,1,0,.7-.7Z" transform="translate(-381.766 -110.236)"/>
      </g>
    </g>
    <g id="Group_1465" data-name="Group 1465" transform="translate(6.078 6.277)">
      <g id="Group_1464" data-name="Group 1464">
        <path id="Path_934" data-name="Path 934" d="M135.846,133.867a1.385,1.385,0,0,0-.815-1.261,1.383,1.383,0,0,0-1.283-1.9H131.6l.141-.419a2.559,2.559,0,0,0-1.681-3.266.494.494,0,0,0-.608.3l-.756,2.09a2.358,2.358,0,0,1-1.091,1.27l-.6.327a1.108,1.108,0,0,0-.766-.307h-2.127A1.113,1.113,0,0,0,123,131.817v5.88a1.113,1.113,0,0,0,1.112,1.112h2.127a1.109,1.109,0,0,0,.849-.395l.226.089a4.419,4.419,0,0,0,1.62.306h4.2a1.383,1.383,0,0,0,1.279-1.91,1.383,1.383,0,0,0,.683-1.8A1.385,1.385,0,0,0,135.846,133.867Zm-9.485,3.829a.124.124,0,0,1-.124.124h-2.127a.124.124,0,0,1-.124-.124v-5.88a.124.124,0,0,1,.124-.124h2.127a.124.124,0,0,1,.113.073c0,.013.006.026.01.039s0,.008,0,.012Zm8.1-3.434h-2.224a.494.494,0,0,0,0,.988h1.581a.4.4,0,0,1,0,.791h-1.581a.494.494,0,0,0,0,.988h.889a.4.4,0,1,1,0,.791h-4.2a3.436,3.436,0,0,1-1.259-.238l-.324-.127v-5.506l.728-.4a3.345,3.345,0,0,0,1.547-1.8l.573-1.584a1.574,1.574,0,0,1,.607,1.8l-.361,1.071a.494.494,0,0,0,.468.652h2.837a.4.4,0,0,1,0,.791h-1.51a.494.494,0,0,0,0,.988h2.224a.4.4,0,0,1,0,.791Z" transform="translate(-122.999 -126.999)" fill="#69c21e"/>
      </g>
    </g>
  </g>
</svg>
