<svg xmlns="http://www.w3.org/2000/svg" width="46.5" height="46.5" viewBox="0 0 46.5 46.5">
  <g id="Open-data" transform="translate(0.75 0.75)">
    <g id="Site-1-Copy-43" transform="translate(0 0)">
      <g id="أنظمة" transform="translate(0 0)">
        <line id="Path" y2="11.108" transform="translate(22.498 9.408)" fill="none" stroke="#91ce05" stroke-linecap="round" stroke-linejoin="round" stroke-width="1.5"/>
        <ellipse id="Oval" cx="3.335" cy="3.332" rx="3.335" ry="3.332" transform="translate(19.164 19.156)" fill="none" stroke="#91ce05" stroke-linecap="round" stroke-linejoin="round" stroke-width="1.5"/>
        <line id="Path-2" data-name="Path" x2="8.739" y2="6.863" transform="translate(24.111 23.788)" fill="none" stroke="#91ce05" stroke-linecap="round" stroke-linejoin="round" stroke-width="1.5"/>
        <line id="Path-3" data-name="Path" x1="8.739" y2="6.863" transform="translate(12.147 23.788)" fill="none" stroke="#91ce05" stroke-linecap="round" stroke-linejoin="round" stroke-width="1.5"/>
        <path id="Path-4" data-name="Path" d="M44.143,25.529A.978.978,0,0,0,45,24.551V20.417a.978.978,0,0,0-.857-.978l-4.4-.549a17.448,17.448,0,0,0-2.514-6.046l2.73-3.52a.977.977,0,0,0-.08-1.291L36.938,5.1a.979.979,0,0,0-1.291-.08L32.141,7.771a17.512,17.512,0,0,0-6.05-2.515l-.55-4.4A.978.978,0,0,0,24.562,0H20.426a.978.978,0,0,0-.978.857l-.55,4.4a17.512,17.512,0,0,0-6.042,2.515L9.343,5.043a.979.979,0,0,0-1.291.08L5.117,8.057a.977.977,0,0,0-.08,1.291l2.739,3.52a17.449,17.449,0,0,0-2.514,6.046l-4.4.55A.978.978,0,0,0,0,20.441v4.118a.978.978,0,0,0,.857.978l4.4.549a17.449,17.449,0,0,0,2.514,6.046l-2.73,3.52a.977.977,0,0,0,.08,1.291l2.935,2.933a.979.979,0,0,0,1.291.08l3.522-2.728a17.513,17.513,0,0,0,6.05,2.515l.55,4.4a.978.978,0,0,0,.978.857H24.6a.978.978,0,0,0,.978-.857l.55-4.4a17.512,17.512,0,0,0,6.05-2.515l3.512,2.728a.979.979,0,0,0,1.291-.08l2.935-2.933a.977.977,0,0,0,.08-1.291l-2.73-3.52a17.449,17.449,0,0,0,2.514-6.046Z" transform="translate(0 0)" fill="none" stroke="#182842" stroke-linecap="round" stroke-linejoin="round" stroke-width="1.5" fill-rule="evenodd"/>
        <ellipse id="Oval-2" data-name="Oval" cx="9.947" cy="9.938" rx="9.947" ry="9.938" transform="translate(12.55 12.547)" fill="none" stroke="#182842" stroke-linecap="round" stroke-linejoin="round" stroke-width="1.5"/>
      </g>
    </g>
  </g>
</svg>
