<svg xmlns="http://www.w3.org/2000/svg" width="20.998" height="20.999" viewBox="0 0 20.998 20.999">
  <path id="snapchat" d="M877.328,149.286a10.5,10.5,0,1,0,10.5,10.5A10.5,10.5,0,0,0,877.328,149.286Zm7.341,14.463c-.084.2-.462.471-1.783.677-.106.017-.149.157-.213.452-.024.107-.047.213-.08.325a.176.176,0,0,1-.19.14h-.015a1.517,1.517,0,0,1-.3-.039,3.968,3.968,0,0,0-.792-.082,3.614,3.614,0,0,0-.573.048,2.789,2.789,0,0,0-1.088.555,3.071,3.071,0,0,1-1.885.745c-.036,0-.072,0-.108,0l-.071,0a3.064,3.064,0,0,1-1.883-.745,2.788,2.788,0,0,0-1.09-.555,3.6,3.6,0,0,0-.572-.048,3.885,3.885,0,0,0-.794.089,1.643,1.643,0,0,1-.3.044.187.187,0,0,1-.206-.148c-.032-.112-.056-.219-.079-.326-.059-.269-.1-.436-.214-.453-1.32-.206-1.7-.483-1.782-.679a.249.249,0,0,1-.021-.087.151.151,0,0,1,.124-.155,4.367,4.367,0,0,0,2.979-2.5l0-.005a.781.781,0,0,0,.074-.653c-.14-.327-.595-.472-.9-.569-.073-.021-.143-.044-.2-.065-.6-.236-.65-.482-.627-.6a.57.57,0,0,1,.551-.361.376.376,0,0,1,.164.034,1.769,1.769,0,0,0,.724.19.6.6,0,0,0,.432-.137c-.007-.138-.015-.281-.026-.429a7.151,7.151,0,0,1,.169-2.835,3.677,3.677,0,0,1,3.411-2.2l.249,0h.035a3.68,3.68,0,0,1,3.415,2.2,7.094,7.094,0,0,1,.169,2.833l0,.043c-.009.133-.016.263-.022.387a.576.576,0,0,0,.392.137h0a1.844,1.844,0,0,0,.682-.19.513.513,0,0,1,.212-.042.673.673,0,0,1,.244.047l0,0a.448.448,0,0,1,.342.365c0,.141-.1.352-.632.559-.053.021-.124.044-.2.065-.3.1-.755.242-.894.569a.772.772,0,0,0,.073.65l0,.008a4.368,4.368,0,0,0,2.978,2.5.153.153,0,0,1,.125.155A.283.283,0,0,1,884.668,163.749Z" transform="translate(-866.829 -149.286)" fill="#bcc2c9"/>
</svg>
