<svg xmlns="http://www.w3.org/2000/svg" width="35.386" height="35.388" viewBox="0 0 35.386 35.388">
  <path id="Path_351" data-name="Path 351" d="M884.522,149.286a17.694,17.694,0,1,0,17.694,17.694A17.693,17.693,0,0,0,884.522,149.286Zm12.37,24.374c-.141.33-.778.793-3.005,1.14-.179.029-.251.265-.359.762-.04.181-.079.359-.135.547a.3.3,0,0,1-.321.237h-.026a2.557,2.557,0,0,1-.5-.065,6.686,6.686,0,0,0-1.336-.138,6.09,6.09,0,0,0-.966.08,4.7,4.7,0,0,0-1.834.934,5.175,5.175,0,0,1-3.177,1.256c-.06,0-.121,0-.182-.005l-.119.005a5.164,5.164,0,0,1-3.174-1.256,4.7,4.7,0,0,0-1.837-.934,6.064,6.064,0,0,0-.964-.08,6.543,6.543,0,0,0-1.338.15,2.771,2.771,0,0,1-.5.075.315.315,0,0,1-.347-.25c-.054-.188-.1-.37-.133-.549-.1-.453-.169-.735-.361-.763-2.225-.346-2.864-.814-3-1.145a.422.422,0,0,1-.036-.147.255.255,0,0,1,.209-.262c3.423-.563,4.958-4.056,5.02-4.207l0-.008a1.316,1.316,0,0,0,.125-1.1c-.236-.551-1-.8-1.509-.959-.122-.036-.242-.074-.334-.11-1.01-.4-1.1-.812-1.056-1.019a.96.96,0,0,1,.929-.608.633.633,0,0,1,.277.058,2.982,2.982,0,0,0,1.22.321,1.013,1.013,0,0,0,.728-.231c-.012-.233-.025-.474-.043-.722-.1-1.619-.227-3.629.284-4.778a6.2,6.2,0,0,1,5.749-3.706l.42,0h.058a6.2,6.2,0,0,1,5.755,3.711c.513,1.145.385,3.159.284,4.775l0,.073c-.015.224-.028.444-.037.653a.971.971,0,0,0,.661.231h0a3.109,3.109,0,0,0,1.149-.321.864.864,0,0,1,.357-.071,1.135,1.135,0,0,1,.411.079l.005,0a.755.755,0,0,1,.576.615c0,.238-.177.592-1.065.942-.09.036-.209.074-.335.11-.506.164-1.272.408-1.506.959a1.3,1.3,0,0,0,.124,1.1l0,.013c.063.151,1.6,3.644,5.019,4.207a.258.258,0,0,1,.211.262A.476.476,0,0,1,896.892,173.66Z" transform="translate(-866.829 -149.286)" fill="#434343"/>
</svg>
