<svg id="support" xmlns="http://www.w3.org/2000/svg" width="17.063" height="21" viewBox="0 0 17.063 21">
  <g id="Group_762" data-name="Group 762" transform="translate(0 0)">
    <path id="Path_762" data-name="Path 762" d="M98.681,256h-.766A1.917,1.917,0,0,0,96,257.915v3.83a1.917,1.917,0,0,0,1.915,1.915h.766a1.151,1.151,0,0,0,1.149-1.149v-5.363A1.151,1.151,0,0,0,98.681,256Z" transform="translate(-93.702 -246.299)" fill="#bcc2c9"/>
    <path id="Path_763" data-name="Path 763" d="M49.45,288h-.3A1.149,1.149,0,0,0,48,289.149v2.3a1.149,1.149,0,0,0,1.149,1.149h.3a.1.1,0,0,0,.1-.1,2.639,2.639,0,0,1-.014-.279c0-3.5-.008-3.9.013-4.108A.1.1,0,0,0,49.45,288Z" transform="translate(-48 -276.644)" fill="#bcc2c9"/>
    <path id="Path_764" data-name="Path 764" d="M56.527,0C51.837,0,48,4.57,48,10.045v.3a1.154,1.154,0,0,0,.656,1.083v1.523a.087.087,0,0,0,.093.095,2.75,2.75,0,0,1,.48-.02.09.09,0,0,0,.083-.1V11.491h.328a1.076,1.076,0,0,0,.984-1.149v-.316c0-3.811,2.625-6.951,5.889-6.962s5.923,3.087,5.923,6.895v.383a1.076,1.076,0,0,0,.984,1.149h.328v1.436a.09.09,0,0,0,.083.1,2.789,2.789,0,0,1,.481.02.087.087,0,0,0,.093-.095V11.425a1.154,1.154,0,0,0,.656-1.083V9.959C65.063,4.466,61.233,0,56.527,0Z" transform="translate(-48 0)" fill="#bcc2c9"/>
    <path id="Path_765" data-name="Path 765" d="M337.149,263.661h.766a1.917,1.917,0,0,0,1.915-1.915v-3.83A1.917,1.917,0,0,0,337.915,256h-.766A1.151,1.151,0,0,0,336,257.149v5.363A1.151,1.151,0,0,0,337.149,263.661Z" transform="translate(-325.066 -246.299)" fill="#bcc2c9"/>
    <path id="Path_766" data-name="Path 766" d="M432.085,288h-.3a.1.1,0,0,0-.1.1,2.641,2.641,0,0,1,.014.279c0,3.5.008,3.9-.013,4.108a.1.1,0,0,0,.1.106h.3a1.149,1.149,0,0,0,1.149-1.149v-2.3A1.149,1.149,0,0,0,432.085,288Z" transform="translate(-416.172 -276.644)" fill="#bcc2c9"/>
    <path id="Path_767" data-name="Path 767" d="M294.9,399.692v.862a2.49,2.49,0,0,1-2.49,2.49h-1.389a1.532,1.532,0,1,0,0,.766h1.389a3.256,3.256,0,0,0,3.256-3.256v-.882a.1.1,0,0,0-.109-.095,3.73,3.73,0,0,1-.561.02A.1.1,0,0,0,294.9,399.692Z" transform="translate(-279.365 -383.958)" fill="#bcc2c9"/>
  </g>
</svg>
