<svg id="support" xmlns="http://www.w3.org/2000/svg" width="19.5" height="24" viewBox="0 0 19.5 24">
  <g id="Group_762" data-name="Group 762">
    <path id="Path_762" data-name="Path 762" d="M98.625,256h-.75A1.877,1.877,0,0,0,96,257.875v3.75a1.877,1.877,0,0,0,1.875,1.875h.75a1.126,1.126,0,0,0,1.125-1.125v-5.25A1.126,1.126,0,0,0,98.625,256Z" transform="translate(-93.75 -244)" fill="#016b68"/>
    <path id="Path_763" data-name="Path 763" d="M49.42,288h-.295A1.125,1.125,0,0,0,48,289.125v2.25a1.125,1.125,0,0,0,1.125,1.125h.3a.093.093,0,0,0,.093-.1,2.582,2.582,0,0,1-.014-.273c0-3.426-.008-3.822.013-4.022A.094.094,0,0,0,49.42,288Z" transform="translate(-48 -274.5)" fill="#016b68"/>
    <path id="Path_764" data-name="Path 764" d="M57.745,0A9.852,9.852,0,0,0,48,9.834v.291a1.127,1.127,0,0,0,.75,1.06v1.491a.094.094,0,0,0,.107.093,3.664,3.664,0,0,1,.549-.019.094.094,0,0,0,.094-.094V11.25h.375A1.125,1.125,0,0,0,51,10.125v-.31A6.75,6.75,0,1,1,64.5,9.75v.375a1.125,1.125,0,0,0,1.125,1.125H66v1.406a.094.094,0,0,0,.094.094,3.716,3.716,0,0,1,.549.019.093.093,0,0,0,.106-.093V11.185a1.127,1.127,0,0,0,.75-1.06V9.75A9.761,9.761,0,0,0,57.745,0Z" transform="translate(-48 0)" fill="#016b68"/>
    <path id="Path_765" data-name="Path 765" d="M337.125,263.5h.75a1.877,1.877,0,0,0,1.875-1.875v-3.75A1.877,1.877,0,0,0,337.875,256h-.75A1.126,1.126,0,0,0,336,257.125v5.25A1.126,1.126,0,0,0,337.125,263.5Z" transform="translate(-322.5 -244)" fill="#016b68"/>
    <path id="Path_766" data-name="Path 766" d="M432.077,288h-.3a.093.093,0,0,0-.093.1,2.58,2.58,0,0,1,.014.273c0,3.426.008,3.822-.013,4.022a.094.094,0,0,0,.093.1h.295a1.125,1.125,0,0,0,1.125-1.125v-2.25A1.125,1.125,0,0,0,432.077,288Z" transform="translate(-413.702 -274.5)" fill="#016b68"/>
    <path id="Path_767" data-name="Path 767" d="M294.751,399.689v.844a2.438,2.438,0,0,1-2.438,2.438h-1.36a1.5,1.5,0,1,0,0,.75h1.36a3.188,3.188,0,0,0,3.188-3.187v-.864a.094.094,0,0,0-.107-.093,3.656,3.656,0,0,1-.549.019A.094.094,0,0,0,294.751,399.689Z" transform="translate(-276.751 -380.845)" fill="#016b68"/>
  </g>
</svg>
