<svg xmlns="http://www.w3.org/2000/svg" width="35.386" height="35.388" viewBox="0 0 35.386 35.388">
  <path id="Path_350" data-name="Path 350" d="M963.6,149.286a17.694,17.694,0,1,0,17.694,17.694A17.694,17.694,0,0,0,963.6,149.286Zm9.454,14.038c.009.2.016.4.016.6a13.274,13.274,0,0,1-20.438,11.183,9,9,0,0,0,1.112.066,9.38,9.38,0,0,0,5.8-2,4.667,4.667,0,0,1-4.361-3.241,4.551,4.551,0,0,0,.88.084,4.694,4.694,0,0,0,1.229-.163,4.675,4.675,0,0,1-3.744-4.578v-.062a4.622,4.622,0,0,0,2.113.587,4.676,4.676,0,0,1-1.445-6.233,13.248,13.248,0,0,0,9.622,4.875,4.672,4.672,0,0,1,7.955-4.255,9.32,9.32,0,0,0,2.964-1.134,4.676,4.676,0,0,1-2.054,2.584,9.2,9.2,0,0,0,2.683-.737A9.436,9.436,0,0,1,973.052,163.324Z" transform="translate(-945.905 -149.286)" fill="#434343"/>
</svg>
