<svg xmlns="http://www.w3.org/2000/svg" width="20.998" height="20.999" viewBox="0 0 20.998 20.999">
  <path id="twitter" d="M956.4,149.286a10.5,10.5,0,1,0,10.5,10.5A10.5,10.5,0,0,0,956.4,149.286Zm5.61,8.33c.005.118.009.239.009.358A7.877,7.877,0,0,1,949.9,164.61a5.338,5.338,0,0,0,.66.039A5.566,5.566,0,0,0,954,163.463a2.769,2.769,0,0,1-2.588-1.923,2.7,2.7,0,0,0,.522.05,2.786,2.786,0,0,0,.729-.1,2.774,2.774,0,0,1-2.222-2.716v-.037a2.743,2.743,0,0,0,1.254.348,2.775,2.775,0,0,1-.857-3.7,7.861,7.861,0,0,0,5.71,2.893,2.772,2.772,0,0,1,4.72-2.525,5.53,5.53,0,0,0,1.759-.673,2.775,2.775,0,0,1-1.219,1.533,5.456,5.456,0,0,0,1.592-.437A5.6,5.6,0,0,1,962.013,157.616Z" transform="translate(-945.905 -149.286)" fill="#bcc2c9"/>
</svg>
