<svg xmlns="http://www.w3.org/2000/svg" width="21.334" height="16" viewBox="0 0 21.334 16">
  <path id="volume-mute" d="M8.96,4.794,5.253,8.5H1a1,1,0,0,0-1,1v6a1,1,0,0,0,1,1H5.253L8.96,20.207a1,1,0,0,0,1.707-.707V5.5A1,1,0,0,0,8.96,4.794ZM19.235,12.5l1.9-1.9a.672.672,0,0,0,0-.951L20.186,8.7a.672.672,0,0,0-.951,0l-1.9,1.9-1.9-1.9a.672.672,0,0,0-.951,0l-.951.951a.672.672,0,0,0,0,.951l1.9,1.9-1.9,1.9a.672.672,0,0,0,0,.951l.951.951a.672.672,0,0,0,.951,0l1.9-1.9,1.9,1.9a.672.672,0,0,0,.951,0l.951-.951a.672.672,0,0,0,0-.951Z" transform="translate(0 -4.5)" fill="#f2f4f4" opacity="0.848"/>
</svg>
