<svg xmlns="http://www.w3.org/2000/svg" width="20.998" height="20.999" viewBox="0 0 20.998 20.999">
  <g id="youtube" transform="translate(0)">
    <path id="Path_348" data-name="Path 348" d="M920.621,166.371l3.417-1.771-3.417-1.781Z" transform="translate(-911.689 -154.339)" fill="#bcc2c9"/>
    <path id="Path_349" data-name="Path 349" d="M916.866,149.286a10.5,10.5,0,1,0,10.5,10.5A10.5,10.5,0,0,0,916.866,149.286Zm6.063,13.011a1.813,1.813,0,0,1-1.807,1.806h-9.034a1.811,1.811,0,0,1-1.806-1.806v-5.058a1.81,1.81,0,0,1,1.806-1.808h9.034a1.811,1.811,0,0,1,1.807,1.808Z" transform="translate(-906.367 -149.286)" fill="#bcc2c9"/>
  </g>
</svg>
