<svg xmlns="http://www.w3.org/2000/svg" width="35.386" height="35.388" viewBox="0 0 35.386 35.388">
  <g id="Group_269" data-name="Group 269" transform="translate(0)">
    <path id="Path_348" data-name="Path 348" d="M920.621,168.8l5.759-2.984-5.759-3Z" transform="translate(-905.569 -148.529)" fill="#434343"/>
    <path id="Path_349" data-name="Path 349" d="M924.06,149.286a17.694,17.694,0,1,0,17.694,17.694A17.693,17.693,0,0,0,924.06,149.286Zm10.217,21.926a3.055,3.055,0,0,1-3.045,3.043H916.008a3.052,3.052,0,0,1-3.043-3.043v-8.524a3.05,3.05,0,0,1,3.043-3.046h15.224a3.052,3.052,0,0,1,3.045,3.046Z" transform="translate(-906.367 -149.286)" fill="#434343"/>
  </g>
</svg>
