<svg xmlns="http://www.w3.org/2000/svg" width="38.293" height="36" viewBox="0 0 38.293 36">
  <path id="Icon_awesome-snapchat-ghost" data-name="Icon awesome-snapchat-ghost" d="M38.207,29.3c-.39.909-2.037,1.577-5.038,2.043a14.028,14.028,0,0,0-.487,1.792.866.866,0,0,1-.907.663h-.022c-.7,0-1.436-.323-2.906-.323-1.984,0-2.667.452-4.207,1.54-1.633,1.155-3.2,2.151-5.537,2.049-2.367.175-4.34-1.265-5.45-2.05-1.549-1.1-2.231-1.539-4.206-1.539a28.249,28.249,0,0,0-2.906.353.888.888,0,0,1-.929-.676,13.854,13.854,0,0,0-.488-1.8C3.578,31.107.09,30.5,0,28.942a.8.8,0,0,1,.664-.828c5.2-.857,7.548-6.2,7.646-6.427.006-.013.012-.026.018-.039a1.7,1.7,0,0,0,.184-1.4c-.378-.89-2.01-1.209-2.7-1.481-1.774-.7-2.02-1.505-1.916-2.057a1.925,1.925,0,0,1,2.468-1.156,4.28,4.28,0,0,0,1.761.471,1.527,1.527,0,0,0,.745-.162c-.153-2.688-.531-6.529.425-8.673a10.19,10.19,0,0,1,9.459-6.1l.756-.007a10.12,10.12,0,0,1,9.478,6.106c.956,2.143.58,5.968.426,8.676a1.466,1.466,0,0,0,.643.16,4.468,4.468,0,0,0,1.651-.468,2.024,2.024,0,0,1,1.532,0h0a1.553,1.553,0,0,1,1.166,1.337c.014.729-.637,1.359-1.935,1.871-.158.062-.351.124-.556.189-.733.232-1.84.584-2.14,1.292a1.7,1.7,0,0,0,.184,1.4c.007.013.012.026.018.039.1.227,2.439,5.569,7.646,6.427A.816.816,0,0,1,38.207,29.3Z" transform="translate(0 -1.078)" fill="#69c21e"/>
</svg>
